<svg width="27" height="28" viewBox="0 0 27 28" fill="none" xmlns="http://www.w3.org/2000/svg">
<g opacity="0.8" clip-path="url(#clip0_31_616)">
<path d="M13.2753 7.22714C9.52966 7.22714 6.50839 10.2484 6.50839 13.9941C6.50839 17.7398 9.52966 20.761 13.2753 20.761C17.021 20.761 20.0423 17.7398 20.0423 13.9941C20.0423 10.2484 17.021 7.22714 13.2753 7.22714ZM13.2753 18.3935C10.8548 18.3935 8.87593 16.4205 8.87593 13.9941C8.87593 11.5676 10.8489 9.59469 13.2753 9.59469C15.7018 9.59469 17.6747 11.5676 17.6747 13.9941C17.6747 16.4205 15.6959 18.3935 13.2753 18.3935ZM21.8974 6.95034C21.8974 7.82786 21.1907 8.5287 20.3191 8.5287C19.4416 8.5287 18.7407 7.82197 18.7407 6.95034C18.7407 6.0787 19.4474 5.37197 20.3191 5.37197C21.1907 5.37197 21.8974 6.0787 21.8974 6.95034ZM26.3793 8.55226C26.2792 6.43796 25.7962 4.56512 24.2473 3.02209C22.7043 1.47906 20.8315 0.996131 18.7172 0.890122C16.5381 0.766444 10.0067 0.766444 7.82762 0.890122C5.7192 0.990242 3.84637 1.47317 2.29745 3.0162C0.748534 4.55923 0.271491 6.43207 0.165482 8.54637C0.0418039 10.7255 0.0418039 17.2568 0.165482 19.4359C0.265602 21.5502 0.748534 23.423 2.29745 24.9661C3.84637 26.5091 5.71331 26.992 7.82762 27.098C10.0067 27.2217 16.5381 27.2217 18.7172 27.098C20.8315 26.9979 22.7043 26.515 24.2473 24.9661C25.7903 23.423 26.2733 21.5502 26.3793 19.4359C26.503 17.2568 26.503 10.7313 26.3793 8.55226ZM23.5641 21.774C23.1048 22.9283 22.2155 23.8176 21.0553 24.2829C19.3179 24.972 15.1953 24.8129 13.2753 24.8129C11.3554 24.8129 7.22689 24.9661 5.49541 24.2829C4.34108 23.8235 3.45178 22.9342 2.98651 21.774C2.29745 20.0366 2.45647 15.914 2.45647 13.9941C2.45647 12.0741 2.30334 7.94565 2.98651 6.21416C3.44589 5.05983 4.33519 4.17053 5.49541 3.70526C7.23278 3.0162 11.3554 3.17522 13.2753 3.17522C15.1953 3.17522 19.3238 3.02209 21.0553 3.70526C22.2096 4.16464 23.0989 5.05394 23.5641 6.21416C24.2532 7.95154 24.0942 12.0741 24.0942 13.9941C24.0942 15.914 24.2532 20.0425 23.5641 21.774Z" fill="white"/>
</g>
<defs>
<clipPath id="clip0_31_616">
<rect width="27" height="28" fill="white"/>
</clipPath>
</defs>
</svg>
