<svg width="22" height="22" viewBox="0 0 22 22" fill="none" xmlns="http://www.w3.org/2000/svg">
<g clip-path="url(#clip0_80_166)">
<path d="M22 11C22 17.0758 17.0758 22 11 22C4.92422 22 0 17.0758 0 11C0 4.92422 4.92422 0 11 0C17.0758 0 22 4.92422 22 11ZM11 2.75C10.2395 2.75 9.625 3.36574 9.625 4.125C9.625 4.88555 10.2395 5.5 11 5.5C11.7605 5.5 12.375 4.88555 12.375 4.125C12.375 3.36574 11.7605 2.75 11 2.75ZM11 17.875C12.5168 17.875 13.75 16.6418 13.75 15.125C13.75 14.3773 13.4535 13.7027 12.9723 13.2086L15.6879 6.94805C15.9543 6.42383 15.718 5.81797 15.198 5.58594C14.6738 5.3582 14.068 5.59453 13.8359 6.11445L11.0816 12.375C11.0559 12.375 11.0258 12.3363 11 12.3363C9.4832 12.3363 8.25 13.6082 8.25 15.125C8.25 16.6418 9.4832 17.875 11 17.875ZM6.1875 4.8125C5.42695 4.8125 4.8125 5.42695 4.8125 6.1875C4.8125 6.94805 5.42695 7.5625 6.1875 7.5625C6.94805 7.5625 7.5625 6.94805 7.5625 6.1875C7.5625 5.42695 6.94805 4.8125 6.1875 4.8125ZM4.125 12.375C4.88555 12.375 5.5 11.7605 5.5 11C5.5 10.2395 4.88555 9.625 4.125 9.625C3.36574 9.625 2.75 10.2395 2.75 11C2.75 11.7605 3.36574 12.375 4.125 12.375ZM17.875 9.625C17.1145 9.625 16.5 10.2395 16.5 11C16.5 11.7605 17.1145 12.375 17.875 12.375C18.6355 12.375 19.25 11.7605 19.25 11C19.25 10.2395 18.6355 9.625 17.875 9.625Z" fill="#838383"/>
</g>
<defs>
<clipPath id="clip0_80_166">
<rect width="22" height="22" fill="white"/>
</clipPath>
</defs>
</svg>
