<svg width="18" height="18" viewBox="0 0 18 18" fill="none" xmlns="http://www.w3.org/2000/svg">
<g clip-path="url(#clip0_80_161)">
<path d="M1.125 2.25C1.125 1.00723 2.13223 0 3.375 0H9C10.241 0 11.25 1.00723 11.25 2.25V9H11.5312C13.2398 9 14.625 10.3852 14.625 12.0938V13.2188C14.625 13.6863 15.0012 14.0625 15.4688 14.0625C15.9363 14.0625 16.3125 13.6863 16.3125 13.2188V7.77305C15.3422 7.55508 14.625 6.67266 14.625 5.625V3.375L13.5 2.25C13.1906 1.93922 13.1906 1.43578 13.5 1.125C13.8094 0.814219 14.3156 0.814219 14.625 1.125L17.3426 3.84258C17.7645 4.26445 18 4.83398 18 5.43164V13.2188C18 14.618 16.868 15.75 15.4688 15.75C14.0695 15.75 12.9375 14.618 12.9375 13.2188V12.0938C12.9375 11.3168 12.3082 10.6559 11.5312 10.6559H11.25V15.75C11.8723 15.75 12.375 16.2527 12.375 16.875C12.375 17.4973 11.8723 18 11.25 18H1.125C0.503789 18 0 17.4973 0 16.875C0 16.2527 0.503789 15.75 1.125 15.75V2.25ZM3.375 6.1875C3.375 6.49687 3.62812 6.75 3.9375 6.75H8.4375C8.74687 6.75 9 6.49687 9 6.1875V2.8125C9 2.50172 8.74687 2.25 8.4375 2.25H3.9375C3.62812 2.25 3.375 2.50172 3.375 2.8125V6.1875Z" fill="#838383"/>
</g>
<defs>
<clipPath id="clip0_80_161">
<rect width="18" height="18" fill="white"/>
</clipPath>
</defs>
</svg>
