<svg width="23" height="15" viewBox="0 0 23 15" fill="none" xmlns="http://www.w3.org/2000/svg">
<path d="M22.8878 12.9353L17.306 0.71309C17.1075 0.278437 16.6751 0 16.1991 0H12.3023L12.4001 0.884583C12.4201 1.06486 12.272 1.22222 12.0823 1.22222H10.9179C10.7282 1.22222 10.5801 1.06486 10.6001 0.884583L10.6979 0H6.80111C6.32474 0 5.89229 0.278437 5.69384 0.71309L0.111987 12.9353C-0.257368 13.7447 0.332002 14.6667 1.21965 14.6667H9.07953L9.49121 10.9358C9.52555 10.6249 9.79947 10.3889 10.1265 10.3889H12.8737C13.2007 10.3889 13.4747 10.6249 13.509 10.9358L13.9207 14.6667H21.7805C22.6682 14.6667 23.2576 13.7447 22.8878 12.9353ZM10.398 2.71792C10.4063 2.64282 10.4434 2.57332 10.5021 2.52283C10.5608 2.47233 10.6369 2.4444 10.7159 2.44444H12.2847C12.448 2.44444 12.5854 2.56247 12.6026 2.71792L12.7863 4.38243C12.8162 4.65323 12.5942 4.88889 12.3099 4.88889H10.6911C10.4064 4.88889 10.1848 4.65323 10.2147 4.38243L10.398 2.71792ZM12.6038 9.16667H10.396C10.0167 9.16667 9.72081 8.85233 9.76074 8.49139L9.96318 6.65806C9.99752 6.34715 10.2714 6.11111 10.5985 6.11111H12.4013C12.7284 6.11111 13.0023 6.34715 13.0366 6.65806L13.2391 8.49139C13.279 8.85233 12.9831 9.16667 12.6038 9.16667Z" fill="#838383"/>
</svg>
